HIERARCHY
ROOT hip
{
	OFFSET 0.000000 0.000000 0.000000 
	CHANNELS 6 Xposition Yposition Zposition Xrotation Zrotation Yrotation
	JOINT abdomen
	{
		OFFSET 0.000000 3.402643 0.000000 
		CHANNELS 3 Xrotation Zrotation Yrotation
		JOINT chest
		{
			OFFSET 0.000000 8.438565 -0.680529 
			CHANNELS 3 Xrotation Zrotation Yrotation
			JOINT neck
			{
				OFFSET 0.000000 10.207942 -0.272212 
				CHANNELS 3 Xrotation Zrotation Yrotation
				JOINT head
				{
					OFFSET 0.000000 3.130431 0.000000 
					CHANNELS 3 Xrotation Zrotation Yrotation
					End Site
					{
						OFFSET 0.000000 3.130435 0.000000 
					}
				}
			}
			JOINT lCollar
			{
				OFFSET 3.470700 6.669187 -0.816635 
				CHANNELS 3 Yrotation Zrotation Xrotation
				JOINT lShldr
				{
					OFFSET 3.198488 0.000000 0.000000 
					CHANNELS 3 Zrotation Yrotation Xrotation
					JOINT lForeArm
					{
						OFFSET 10.139888 0.000000 0.000000 
						CHANNELS 3 Yrotation Zrotation Xrotation
						JOINT lHand
						{
							OFFSET 8.370511 0.000000 0.000000 
							CHANNELS 3 Zrotation Yrotation Xrotation
							End Site
							{
								OFFSET 4.083176 0.000000 0.000000 
							}
						}
					}
				}
			}
			JOINT rCollar
			{
				OFFSET -3.470700 6.669187 -0.816635 
				CHANNELS 3 Yrotation Zrotation Xrotation
				JOINT rShldr
				{
					OFFSET -3.198488 0.000000 0.000000 
					CHANNELS 3 Zrotation Yrotation Xrotation
					JOINT rForeArm
					{
						OFFSET -10.139888 0.000000 0.000000 
						CHANNELS 3 Yrotation Zrotation Xrotation
						JOINT rHand
						{
							OFFSET -8.370511 0.000000 0.000000 
							CHANNELS 3 Zrotation Yrotation Xrotation
							End Site
							{
								OFFSET -4.083176 0.000000 0.000000 
							}
						}
					}
				}
			}
		}
	}
	JOINT lThigh
	{
		OFFSET 5.308129 -1.633274 1.361059 
		CHANNELS 3 Xrotation Zrotation Yrotation
		JOINT lShin
		{
			OFFSET -2.041588 -20.007561 0.000000 
			CHANNELS 3 Xrotation Zrotation Yrotation
			JOINT lFoot
			{
				OFFSET 0.000000 -19.190928 -1.224953 
				CHANNELS 3 Xrotation Yrotation Zrotation
				End Site
				{
					OFFSET 0.000000 -2.449906 4.627600 
				}
			}
		}
	}
	JOINT rThigh
	{
		OFFSET -5.308129 -1.633274 1.361059 
		CHANNELS 3 Xrotation Zrotation Yrotation
		JOINT rShin
		{
			OFFSET 2.041588 -20.007561 0.000000 
			CHANNELS 3 Xrotation Zrotation Yrotation
			JOINT rFoot
			{
				OFFSET 0.000000 -19.190928 -1.224953 
				CHANNELS 3 Xrotation Yrotation Zrotation
				End Site
				{
					OFFSET 0.000000 -2.449906 4.627600 
				}
			}
		}
	}
}
MOTION
Frames: 6
Frame Time: 0.016667
5.772342 44.000130 116.013748 -177.910004 -179.005005 -7.604850 -17.919201 4.200090 -0.607810 10.290900 5.102980 -0.453981 11.981000 -9.654100 3.492370 10.740300 1.857870 2.076270 2.000000 -2.000000 0.000000 91.334198 166.143005 -4.476110 55.498501 -0.292290 0.112724 0.069204 -0.067311 -161.725998 -2.000000 2.000000 0.000000 -113.223999 160.794998 1.669290 -90.078598 0.214675 0.117194 -0.058700 -0.027147 -123.621002 -16.980425 -4.654087 -4.862803 34.100639 2.484231 2.544071 -11.535028 3.340075 -1.155510 -20.544321 3.886138 10.995746 37.111668 -2.265462 -2.798872 -10.080221 7.265850 3.830839 
6.056716 43.992546 116.174393 -177.889999 -178.917007 -6.583050 -18.070499 4.494810 -0.212835 9.903620 5.384650 -0.278055 12.572400 -9.259470 2.730670 10.975200 1.924330 1.721040 2.000000 -2.000000 0.000000 91.529900 167.337997 -1.631530 55.059101 -0.293151 0.112127 0.068122 -0.064919 -160.789001 -2.000000 2.000000 0.000000 -111.787003 157.722000 7.119810 -72.217300 0.256604 0.130191 -0.061313 -0.036835 -120.037003 -16.920940 -4.842766 -5.648220 33.797344 2.470923 2.526282 -11.109170 4.457966 -0.862971 -20.480448 3.859401 10.453094 37.052059 -2.276201 -2.793791 -10.053672 7.078115 3.812956 
6.352266 43.992668 116.256393 -177.705002 -179.199997 -5.012670 -18.370501 5.006680 0.426497 9.305560 5.364270 0.057705 13.468500 -7.807010 1.384430 11.222800 2.397540 1.047410 2.000000 -2.000000 0.000000 91.823303 168.229004 1.593210 54.883301 -0.293495 0.111886 0.066856 -0.061980 -159.645996 -2.000000 2.000000 0.000000 -109.128998 155.936996 7.954360 -51.631302 0.299712 0.107194 -0.064184 -0.045418 -116.805000 -16.818710 -4.480469 -6.400211 33.914165 2.480473 2.526978 -10.884994 4.119052 -0.940913 -20.115452 4.102408 9.485904 36.893410 -2.295894 -2.773959 -10.050274 6.714225 3.733939 
6.620429 44.022770 116.266510 -177.548004 -179.024002 -3.010680 -18.390800 5.478150 1.183620 9.268460 5.248620 0.487945 13.975000 -6.122000 -0.233074 11.433200 3.025470 0.190555 2.000000 -2.000000 0.000000 92.205299 169.636993 4.897300 54.902802 -0.293457 0.111913 0.065549 -0.058763 -158.406006 -2.000000 2.000000 0.000000 -107.056999 155.320007 3.239080 -33.808998 0.328446 0.076076 -0.066400 -0.051128 -114.616997 -16.797792 -4.555886 -7.065311 33.738678 2.476232 2.538677 -10.526778 3.036392 -1.222816 -19.712486 3.757399 8.272006 36.833282 -2.308942 -2.759819 -10.186395 6.197757 3.590348 
6.867651 43.995625 116.211472 -177.373001 -179.054001 -0.600216 -18.194099 6.091570 2.016130 9.456980 5.127400 0.978470 14.659600 -5.233990 -2.028870 11.914400 3.233890 -0.720993 2.000000 -2.000000 0.000000 92.274597 170.697006 6.843160 55.811001 -0.291674 0.113145 0.063560 -0.053434 -156.375000 -2.000000 2.000000 0.000000 75.416702 23.337999 164.238007 -22.236601 0.341397 0.051740 -0.066629 -0.051685 -114.402000 -16.859825 -4.526744 -7.895734 33.992176 2.490934 2.538274 -10.462845 1.980934 -1.490090 -19.360657 3.740600 7.061461 37.243797 -2.334439 -2.788791 -10.535111 5.082160 3.370670 
7.117637 44.004894 116.108109 -177.294998 -179.033997 2.444440 -18.392700 6.302820 1.743290 9.168080 5.371280 0.824257 14.860500 -4.432330 -2.674970 12.083700 3.522300 -1.061210 2.000000 -2.000000 0.000000 91.560600 169.119003 5.081630 58.369598 -0.286549 0.116461 0.063597 -0.053537 -156.414001 -2.000000 2.000000 0.000000 77.536201 18.878599 149.220993 -20.410400 0.342981 0.047681 -0.058465 -0.035900 -123.991997 -16.917374 -4.594127 -9.086296 33.847187 2.468818 2.544201 -10.096063 0.602804 -1.826519 -18.898329 3.694437 5.885164 37.417957 -2.354916 -2.772496 -11.131106 3.253032 2.965552 
